<?xml version="1.0" encoding="UTF-8"?>
<svg width="145px" height="105px" viewBox="0 0 145 105" version="1.1" xmlns="http://www.w3.org/2000/svg" xmlns:xlink="http://www.w3.org/1999/xlink">
    <title>new logo</title>
    <g id="页面-1" stroke="none" stroke-width="1" fill="none" fill-rule="evenodd">
        <g id="Announcement-" transform="translate(-888.000000, -80.000000)" fill="#009D4E" fill-rule="nonzero">
            <g id="new-logo" transform="translate(887.000000, 80.000000)">
                <g id="Group" transform="translate(1.500000, 0.000000)">
                    <path d="M9.2220542,90 C9.09944006,90 8.99987739,90.1051485 8.99987739,90.2352827 L8.99987739,95.767167 C8.99987739,95.8973012 8.90080517,96.0024495 8.77819103,96.0024495 L3.22180897,96.0024495 C3.09919483,96.0024495 3.00012261,95.8973012 3.00012261,95.767167 L3.00012261,90.2352827 C3.00012261,90.1051485 2.90055994,90 2.7779458,90 L0.22217681,90 C0.0995626763,90 0,90.1051485 0,90.2352827 L0,104.764509 C0,104.894123 0.0995626763,104.999792 0.22217681,104.999792 L2.7779458,104.999792 C2.90055994,104.999792 3.00012261,104.894123 3.00012261,104.764509 L3.00012261,99.241857 C3.00012261,99.1117228 3.09919483,99.0065745 3.22180897,99.0065745 L8.77819103,99.0065745 C8.90080517,99.0065745 8.99987739,99.1117228 8.99987739,99.241857 L8.99987739,104.764509 C8.99987739,104.894123 9.09944006,104.999792 9.2220542,104.999792 L11.7783136,104.999792 C11.9009278,104.999792 12,104.894123 12,104.764509 L12,90.2352827 C12,90.1051485 11.9009278,90 11.7783136,90 L9.2220542,90 Z M25.5,90.2352827 C25.5,90.1051485 25.3921452,90 25.25985,90 L15.7209825,90 C15.3230342,90 15,90.3159659 15,90.7058481 L15,104.293423 C15,104.683826 15.3230342,104.999792 15.7209825,104.999792 L25.25985,104.999792 C25.3921452,104.999792 25.5,104.894123 25.5,104.764509 L25.5,102.230951 C25.5,102.100816 25.3921452,101.995668 25.25985,101.995668 L18.2356815,101.995668 C18.102855,101.995668 17.9950005,101.89052 17.9950005,101.760386 L17.9950005,99.2373945 C17.9950005,99.1077808 18.102855,99.002112 18.2356815,99.002112 L24.507483,99.002112 C24.6397782,99.002112 24.747633,98.8969637 24.747633,98.7668295 L24.747633,96.2324415 C24.747633,96.1028278 24.6397782,95.997159 24.507483,95.997159 L18.2356815,95.997159 C18.102855,95.997159 17.9950005,95.8920107 17.9950005,95.7618765 L17.9950005,93.2394075 C17.9950005,93.1092733 18.102855,93.004125 18.2356815,93.004125 L25.25985,93.004125 C25.3921452,93.004125 25.5,92.8984547 25.5,92.7683205 L25.5,90.2352827 Z M41.9701501,90.0002082 C42.0664609,90.0002082 42.1523463,90.0647548 42.1831261,90.1605336 L45.6433663,100.987701 C45.6776212,101.094412 45.8220875,101.094412 45.8563424,100.987701 L49.3165826,90.1605336 C49.3473624,90.0647548 49.4332478,90.0002082 49.5295586,90.0002082 L52.3429276,90.0002082 C52.4501603,90.0002082 52.5256203,90.110562 52.4918619,90.2172721 L47.9210682,104.517983 C47.8287289,104.80584 47.5715691,105 47.2821401,105 L44.2175686,105 C43.9281396,105 43.6709798,104.80584 43.5791369,104.517983 L39.0083433,90.2172721 C38.9740884,90.110562 39.0495484,90.0002082 39.1572776,90.0002082 Z M35.2824314,90.0001041 C35.5718604,90.0001041 35.8290202,90.1942644 35.9213595,90.4816008 L40.4916567,104.782311 C40.5259116,104.889542 40.4504516,104.999896 40.3427224,104.999896 L37.5298499,104.999896 C37.4330426,104.999896 37.3476537,104.934829 37.3168739,104.839571 L36.3587299,101.841278 L31.1415614,101.841278 L30.182921,104.839571 C30.1521412,104.934829 30.0667522,104.999896 29.9704414,104.999896 L27.1570724,104.999896 C27.0498397,104.999896 26.9743797,104.889542 27.0081381,104.782311 L31.5789318,90.4816008 C31.6712711,90.1942644 31.9284309,90.0001041 32.2178599,90.0001041 Z M33.8566337,94.0124027 C33.8223788,93.9051721 33.6779125,93.9051721 33.6436576,94.0124027 L32.0441033,99.016324 L35.456188,99.016324 Z M64.5,90.2352827 C64.5,90.1051485 64.3921452,90 64.25985,90 L54.7209825,90 C54.3230342,90 54,90.3159659 54,90.7058481 L54,104.293423 C54,104.683826 54.3230342,104.999792 54.7209825,104.999792 L64.25985,104.999792 C64.3921452,104.999792 64.5,104.894123 64.5,104.764509 L64.5,102.230951 C64.5,102.100816 64.3921452,101.995668 64.25985,101.995668 L57.2356815,101.995668 C57.102855,101.995668 56.9950005,101.89052 56.9950005,101.760386 L56.9950005,99.2373945 C56.9950005,99.1077808 57.102855,99.002112 57.2356815,99.002112 L63.507483,99.002112 C63.6397782,99.002112 63.747633,98.8969637 63.747633,98.7668295 L63.747633,96.2324415 C63.747633,96.1028278 63.6397782,95.997159 63.507483,95.997159 L57.2356815,95.997159 C57.102855,95.997159 56.9950005,95.8920107 56.9950005,95.7618765 L56.9950005,93.2394075 C56.9950005,93.1092733 57.102855,93.004125 57.2356815,93.004125 L64.25985,93.004125 C64.3921452,93.004125 64.5,92.8984547 64.5,92.7683205 L64.5,90.2352827 Z M76.4998774,98.9642183 C76.4998774,99.0797775 76.3586259,99.1261053 76.2973188,99.0303265 L70.5658438,90.1025978 C70.5246454,90.0385718 70.4559815,90.0000521 70.382413,90.0000521 L67.7216864,90.0000521 C67.5990722,90.0000521 67.5,90.1052005 67.5,90.2353347 L67.5,104.764561 C67.5,104.894175 67.5990722,104.999844 67.7216864,104.999844 L70.2779458,104.999844 C70.4005599,104.999844 70.5001226,104.894175 70.5001226,104.764561 L70.5001226,96.0356776 C70.5001226,95.9195979 70.6408836,95.8737906 70.7026812,95.9695694 L76.4336658,104.896778 C76.4753546,104.961324 76.5440185,104.999844 76.6170965,104.999844 L79.2783136,104.999844 C79.4009278,104.999844 79.5,104.894175 79.5,104.764561 L79.5,90.2353347 C79.5,90.1052005 79.4009278,90.0000521 79.2783136,90.0000521 L76.7215637,90.0000521 C76.5994401,90.0000521 76.4998774,90.1052005 76.4998774,90.2353347 L76.4998774,98.9642183 Z M93.222422,96.0024495 C93.0993174,96.0024495 93.0002452,96.1081182 93.0002452,96.238773 L93.0002452,98.7712905 C93.0002452,98.9014247 93.0993174,99.0065745 93.2219316,99.0065745 L95.778191,99.0065745 C95.9008052,99.0065745 95.9998774,99.1117228 95.9998774,99.241857 L95.9998774,101.760386 C95.9998774,101.89052 95.9008052,101.995668 95.778191,101.995668 L90.2213185,101.995668 C90.0991948,101.995668 89.9996322,101.89052 89.9996322,101.760386 L89.9996322,93.2394075 C89.9996322,93.1092733 90.0991948,93.004125 90.2213185,93.004125 L98.7783136,93.004125 C98.9004373,93.004125 99,92.8984547 99,92.7683205 L99,90.2352827 C99,90.1051485 98.9004373,90 98.7783136,90 L87.6670209,90 C87.298688,90 87,90.317007 87,90.7079302 L87,104.293423 C87,104.683826 87.2977071,104.999792 87.6655495,104.999792 L98.3324887,104.999792 C98.701312,104.999792 99,104.682785 99,104.291341 L99,96.7088175 C99,96.3184148 98.7022929,96.0024495 98.3344505,96.0024495 L93.222422,96.0024495 Z M102,104.764561 C102,104.894175 102.099068,104.999844 102.221677,104.999844 L104.778323,104.999844 C104.900441,104.999844 105,104.894175 105,104.764561 L105,90.2353347 C105,90.1052005 104.900441,90.0000521 104.778323,90.0000521 L102.221677,90.0000521 C102.099068,90.0000521 102,90.1052005 102,90.2353347 L102,104.764561 Z M120.253912,90 C120.113784,90 120,90.1051485 120,90.2352827 L120,92.7683205 C120,92.8984547 120.113784,93.004125 120.253912,93.004125 L124.244004,93.004125 C124.384132,93.004125 124.497916,93.1092733 124.497916,93.2394075 L124.497916,104.764509 C124.497916,104.894123 124.61114,104.999792 124.751268,104.999792 L127.252656,104.999792 C127.392784,104.999792 127.506569,104.894123 127.506569,104.764509 L127.506569,93.2394075 C127.506569,93.1092733 127.619791,93.004125 127.759918,93.004125 L131.746649,93.004125 C131.886777,93.004125 132,92.8984547 132,92.7683205 L132,90.2352827 C132,90.1051485 131.886777,90 131.746649,90 L120.253912,90 Z M118.5,90.2352827 C118.5,90.1051485 118.392146,90 118.259319,90 L108.240682,90 C108.107855,90 108,90.1051485 108,90.2352827 L108,104.764509 C108,104.894123 108.107855,104.999792 108.240682,104.999792 L110.754849,104.999792 C110.887676,104.999792 110.995,104.894123 110.995,104.764509 L110.995,99.2350365 C110.995,99.1049023 111.102855,98.999754 111.23515,98.999754 L118.259319,98.999754 C118.392146,98.999754 118.5,98.8935647 118.5,98.763951 L118.5,96.230913 C118.5,96.1007788 118.392146,95.9951085 118.259319,95.9951085 L111.23515,95.9951085 C111.102855,95.9951085 110.995,95.8899602 110.995,95.759826 L110.995,93.2394075 C110.995,93.1092733 111.102855,93.004125 111.23515,93.004125 L118.259319,93.004125 C118.392146,93.004125 118.5,92.8984547 118.5,92.7683205 L118.5,90.2352827 Z M144,90.2352827 C144,90.1051485 143.90093,90 143.778318,90 L134.165538,90 C133.798192,90 133.5,90.3159659 133.5,90.7058481 L133.5,98.286576 C133.5,98.6769787 133.798192,98.992944 134.165538,98.992944 L140.778247,98.992944 C140.900859,98.992944 140.99993,99.0986128 140.99993,99.228747 L140.99993,101.760386 C140.99993,101.89052 140.900859,101.995668 140.778247,101.995668 L133.722173,101.995668 C133.599561,101.995668 133.5,102.100816 133.5,102.230951 L133.5,104.764509 C133.5,104.894123 133.599561,104.999792 133.722173,104.999792 L143.334953,104.999792 C143.702298,104.999792 144,104.683826 144,104.293423 L144,96.7101885 C144,96.3203063 143.702298,96.0038205 143.334953,96.0038205 L136.722243,96.0038205 C136.599631,96.0038205 136.50007,95.8986707 136.50007,95.7685365 L136.50007,93.2394075 C136.50007,93.1092733 136.599631,93.004125 136.722243,93.004125 L143.778318,93.004125 C143.90093,93.004125 144,92.8984547 144,92.7683205 L144,90.2352827 Z" id="Combined-Shape"></path>
                    <path d="M117.613366,22.6901322 C117.611345,22.6295907 117.610335,22.5695414 117.608313,22.509 C117.601237,22.2806159 117.439504,22.1117889 117.241887,22.0605994 C117.229252,22.0581383 117.217123,22.0556773 117.204993,22.0542007 C117.183766,22.050263 117.162032,22.0482942 117.139794,22.0473098 C117.051346,22.0468176 116.959866,22.0679825 116.872935,22.1206486 C116.491347,22.354447 116.106727,22.5877531 115.720085,22.8215514 C109.393812,26.643539 102.446891,30.4734019 95.01831,34.1994091 C93.7760014,34.8225432 92.996148,36.0717646 92.996148,37.4327171 L92.996148,54.4940893 C92.996148,54.6117267 92.952681,54.726411 92.8728255,54.8155005 C90.920915,56.9959776 88.3768033,59.0785055 86.2090809,61.0552089 C86.0503807,61.20041 85.5,61.0891712 85.5,60.8765378 L85.5,33.4113856 C85.5,32.033206 86.5881417,30.7721716 87.8547102,30.1564206 C96.2243729,26.0898061 104.038585,21.8730685 111.107817,17.6563309 C116.995389,14.144926 120.425131,7.73245281 119.957623,1.02465543 C119.944482,0.834663519 119.930836,0.644179399 119.916179,0.454187487 C119.88737,0.0791257316 119.448165,-0.121202529 119.132281,0.0958607706 C108.11172,7.67388017 94.1819932,15.5718341 78.5485146,22.8781553 C76.3838247,23.8901329 75,26.0154828 75,28.3539584 L75,80.5185514 C75,80.8896755 75.4119127,81.1259349 75.7434646,80.9433261 C85.260418,75.6998446 94.1474809,68.7685853 101.015052,60.5669396 C102.816854,58.4155027 103.5,55.7162393 103.5,52.9401917 L103.5,41.8458453 C103.5,41.6711118 103.883785,41.5111445 104.042486,41.4284537 C105.017935,40.9204961 105.98277,40.4110618 106.939519,39.9001509 C107.323634,39.6978538 107.682985,39.5068775 107.997352,39.3380505 C114.050196,36.0796399 117.786219,29.822212 117.62398,23.0888199 M59.213277,19.7577962 C58.8821034,19.5958528 58.492785,19.8311384 58.492785,20.1924346 L58.492785,38.0377121 C58.492785,38.2168836 58.2996416,38.3345263 58.133802,38.2567541 C56.0699078,37.2910004 53.2713502,36.3149099 51.270657,35.3309437 C51.1027949,35.2482492 50.997123,35.0803991 50.997123,34.8972898 L50.997123,18.1344243 C50.997123,16.8063899 50.2538793,15.5827081 49.058115,14.9442869 C39.8327807,10.0224871 31.9838898,4.98845899 24.8573368,0.0883172787 C24.5443651,-0.126294654 24.113081,0.0725659442 24.0847669,0.444198992 C24.0701043,0.636660611 24.0559472,0.829614458 24.0422958,1.02256831 C23.5741022,7.74297361 27.0223528,14.1557357 32.9233106,17.6727133 C35.1040004,18.9721984 39.2140889,21.4013495 40.269294,21.9979313 C40.4174373,22.0816103 40.507941,22.2342013 40.507941,22.401067 C40.5074354,22.7914048 40.50693,25.5523184 40.50693,29.2656955 C40.5064244,29.4507737 40.3011477,29.5684165 40.1348025,29.4783385 C35.5929206,27.0265449 31.0537294,24.561461 27.1473975,22.1209886 C26.8258304,21.9196669 26.404153,22.1377244 26.392524,22.5098497 C26.3864567,22.7032958 26.3814011,22.8962496 26.376345,23.0896957 C26.2150559,29.8233912 30.4170088,36.0811011 36.4721773,39.3396584 C37.5066524,39.8963696 38.8247704,40.6755684 40.24098,41.4060366 C40.4042916,41.4902078 40.5054135,41.6555968 40.5054135,41.8357527 C40.5054135,47.8478401 40.504908,52.9207543 40.504908,52.9207543 C40.504908,55.692497 41.1680918,58.389913 42.9665415,60.5389857 C45.2043651,63.2127747 47.6055014,65.7516929 50.1552855,68.1414657 C50.4707853,68.4368032 50.997123,68.2157923 50.997123,67.7895218 L50.997123,47.3147559 C50.997123,47.1355845 51.1887484,47.0184339 51.354588,47.0962062 C53.110061,47.922659 57.1943818,49.4436472 58.2152055,49.9083116 C58.3855956,49.9860838 58.492785,50.151965 58.492785,50.3355665 L58.492785,71.401992 C58.492785,73.3709088 59.4716424,75.2197217 61.12296,76.3562789 C63.5099381,77.9988477 65.7003984,79.5286961 68.2557442,80.9369638 C68.5874234,81.1195809 69,80.8833109 69,80.51217 L69,28.3427658 C69,26.0140294 67.6318232,23.8910448 65.477425,22.8790216 C63.3968457,21.9014544 61.0951522,20.6777726 59.213277,19.7577962 Z" id="Combined-Shape"></path>
                </g>
            </g>
        </g>
    </g>
</svg>